<?xml version="1.0" encoding="ISO-8859-1"?>
<!DOCTYPE svg PUBLIC "-//W3C//DTD SVG 1.0//EN" "http://www.w3.org/TR/2001/REC-SVG-20010904/DTD/svg10.dtd">
<!-- Creator: CorelDRAW -->
<svg xmlns="http://www.w3.org/2000/svg" xmlns:odm="http://product.corel.com/CGS/11/cddns/" xml:space="preserve" width="349px" height="315px" style="shape-rendering: geometricprecision; text-rendering: geometricprecision;" viewBox="0 0 350 314">
 <defs>
  <style type="text/css">
   <![CDATA[
    .fil2 {fill:#000000}
    .fil1 {fill:#FFFFFF}
    .fil0 {fill:#00ADEF; fill-rule: nonzero}
   ]]>
  </style>
 </defs>
 <g id="Layer 1">
  <path class="fil0" d="M89 6l162 0c14,0 25,12 25,26l0 174c0,14 -11,25 -25,25l-162 0c-15,0 -26,-11 -26,-25l0 -174c0,-14 11,-26 26,-26z"/>
  <path class="fil1" d="M170 23l20 81 75 38 -84 2 -54 64 17 -82 -50 -66 76 34 76 -34 -50 66 16 82 -54 -64 -83 -2 74 -38 21 -81z"/>
  <path class="fil2" d="M7 308l0 -51 14 0 17 38 17 -38 13 0 0 51 -11 0 0 -28 -13 28 -12 0 -13 -28 0 28 -12 0z"/>
  <path class="fil2" style="fill-rule: evenodd;" d="M74 308l23 -51 61 0 0 11 -37 0 0 10 32 0 0 10 -32 0 0 10 36 0 0 10 -48 0 0 -10 -17 0 -5 10 -13 0zm35 -20l-13 0 9 -20 4 0 0 20z"/>
  <path class="fil2" d="M167 257l0 51 13 0 0 -17 15 0 9 17 13 0 -9 -17c4,0 9,-2 9,-7l0 -19c1,-4 -2,-8 -6,-8l-44 0zm13 11l25 0 0 13 -25 0 0 -13z"/>
  <path class="fil2" d="M235 288c-2,0 -7,-3 -7,-7l0 -17c0,-3 3,-7 5,-7l38 0c3,0 7,4 6,6l0 9 -12 0 0 -5 -25 0 0 11 31 0c2,0 7,3 6,7l0 17c1,3 -2,6 -5,6l-38 0c-2,0 -6,-3 -6,-5l0 -9 13 0 0 4 24 0 0 -10 -30 0z"/>
  <path class="fil2" d="M290 257l0 51 12 0 0 -22 23 22 17 0 -28 -27 27 -24 -16 0 -23 20 0 -20 -12 0z"/>
 </g>
</svg>